<svg xmlns="http://www.w3.org/2000/svg" viewBox="0 0 223.3 299.19"><defs><style>.cls-1{fill:#231f20;}</style></defs><g id="Layer_2" data-name="Layer 2"><g id="Layer_1-2" data-name="Layer 1"><path class="cls-1" d="M71.18,3.37a7.74,7.74,0,0,0,2.41-.16A67.8,67.8,0,0,1,92.17.07a38.84,38.84,0,0,1,15.68,2.07c4.71,1.73,9.35,3.55,14,5.6,1.38.61,2.22,2.41,3.07,3.6.28.39.38,1.28.72,1.44a9.8,9.8,0,0,1,5,5.18c.91,2,2,3.68,2.75,5.69,2,5.7,3.9,11.46,6,17.13,7.33,2.69,10.8,7.46,11.21,15.16a37.69,37.69,0,0,1-.94,9c-.54,2.78-1.81,4.47-2.55,7a3.7,3.7,0,0,0-.31,2.47,90.27,90.27,0,0,0,7,14.82c.37.6,1.16,1.54,1.6,1.65,3,.72,4.48,2.83,5.78,5.18,2.46,4.48,4.11,8.79,6.71,13,1.38,2.25,3.8,3.53,6,4.71,2.74,1.45,5.6,2.13,8.38,3.38a7.85,7.85,0,0,1,3.2,2.52c5.7,8.39,12.88,14.52,20.44,21.11A24.43,24.43,0,0,1,213.89,153c.42,1.39,1.41,2.72,1.81,4.22,1.89,7.16,3.7,14,4.41,21.53.28,3,1.67,5.89,2.27,9s1.22,6.75.76,10.06c-.75,5.46-2.5,10.76-3.8,16.09a5.81,5.81,0,0,1-.74,2.06c-3.15,4.34-5.07,9-7,13.94a49,49,0,0,0-3.15,12.35,79.55,79.55,0,0,1-3,12.67,13.77,13.77,0,0,1-.93,1.92c-3.07,7.26-4,11.2-1.9,19.24,1.34,5.07,3.11,11.85,2.41,17.52-.9.34-1,5.05-2,5.07-44.72.8-91.47.47-136.5,0l-2.14,0c-.43-1.08-.86-2.15-1.28-3.23-2.06-1.86-4-3.83-6.23-5.52a5.89,5.89,0,0,0-3.87-1.19c-3.25.28-6.26,1.39-9.41,1.88a49.13,49.13,0,0,1-17.39-.79c-2.64-.53-5.31-.9-7.88-1.51a11.12,11.12,0,0,1-8.16-6.71c-2.31-4.87-4.57-9.75-6.53-14.8C2.66,264,2.51,261,2,258.13c-.29-1.7-.39-3.44-.57-5.17C1,248.07-.44,243.38.14,238.4c.47-4,2.65-7.57,4.77-11,4.27-6.92,8.9-13.56,13.56-20.22S27.92,194,32.76,187.46c.9-1.22,2.2-2.13,3.2-3.28a34.43,34.43,0,0,0,7.32-14.31,18.47,18.47,0,0,1,5.8-9.41A13.86,13.86,0,0,0,51,158.09a34.18,34.18,0,0,1,16-12.46,37.48,37.48,0,0,0,9.7-5.58c3.49-2.79,7.59-5.1,11.21-7.61a15.36,15.36,0,0,0,4.29-3.87,59.84,59.84,0,0,1,10.74-12.43c2.34-2.16.66-3.75-2.06-4a8.47,8.47,0,0,1-3.14-.64c-3.17-1.86-5.68-3.21-9-5-4-2.2-7.82-3.71-11.72-7-7.31-6.11-12-12.87-13.36-22.8a12.08,12.08,0,0,0-1.28-4.24,22,22,0,0,1-3-8.9,18,18,0,0,0-3-8.42,11.26,11.26,0,0,1-1.78-4.69C54,45,51.41,42.13,48.4,37.81A12.9,12.9,0,0,1,47,25.67a31.7,31.7,0,0,1,1.6-3.34,24.83,24.83,0,0,1,2.76-4.83c2-2.48,4.35-4.54,6.54-6.83C62.32,8.24,66.72,5.76,71.18,3.37Z"/></g></g></svg>