<svg xmlns="http://www.w3.org/2000/svg" viewBox="0 0 294.69 286.48"><defs><style>.cls-1{fill:#231f20;}</style></defs><g id="Layer_2" data-name="Layer 2"><g id="Layer_1-2" data-name="Layer 1"><path class="cls-1" d="M15.9,226.47c6.06,4,11.09,8.05,17.38,11,19.39,9.22,39.64,15.59,60.39,21.07,2,.54,4-.36,6.07-.55,1.61-.16,3.41-.49,5.05-.67.21.55.37,1.12.55,1.69-11.87,8.41-16.81,19.71-29.22,27.34,76.07,0,145.29.1,218.57.1-.83-4-1.62-10.47-2.48-13.9a339.84,339.84,0,0,1-7.55-36.87,236.74,236.74,0,0,0-5-25.51c-2.51-10-3.9-20.21-6.74-30.54-2.32-8.47-6.39-17-9.91-25.37-4.4-10.45-10.39-20.32-13.68-31.38-1.4-4.69,2.25-8,3.22-12.73,2.32-11.46,0-19.93-8.19-28.68a6.67,6.67,0,0,1-1.53-3.77c-1-7.58.24-14.29-1.29-22.17-2.11-10.92-5.72-20.9-14.07-29.21-4.17-4.14-10.27-5.84-16.21-6.26a7.07,7.07,0,0,1-2.24-.14c-6.17-2.77-11.28-3.17-18.27-3.36-1.06,0-4.28-3.07-4.58-4.53a17.36,17.36,0,0,1-9.76-5c-1.86-1.8-3.79-4.09-6.24-5.41A12.9,12.9,0,0,0,164.83.6c-.79,0-2,.33-2.57.2A39.06,39.06,0,0,0,150.78.15a78,78,0,0,0-18.49,3.58C124.39,6.37,119,10.63,113,16.2c-3.43,3.17-4.92,7.09-5.26,11.76a4.7,4.7,0,0,1-.19,1.38c-3.39,6.51-2.15,14.25-2.09,20.92s.89,14.56-2,19.71C97.67,80.14,92.94,83.53,84.1,91.39,72.26,101.91,59.75,110.88,47.77,124c-9.12,10-22.08,25-31.14,36.25L8.45,171.7l-5.63,13L0,196.12v8.24l1.69,6.85,4.41,6.85,4.51,4.6M167.76,186.4c-10.93,2.49-24.23,6.72-34.72,8.33-16.9,2.61-31.57,1-47.62-.56-4.67-.46-8.77-1.16-12.64-1.38-3.38-.2-5.35-.74-4.26-3.83A164.61,164.61,0,0,1,78,168.31c7.77-14.73,15.85-27.72,27.77-39.14,3.17-3,7.88-2.41,11.38-4.82a4.29,4.29,0,0,0,1.39-.08c.08,1.51-.45,2.42-.18,4,.4,2.43.42,4.69,2.07,7,1,1.4,3.32,1.93,4.85,3.32,1.25,1.15,1.7,2.57,2.68,4.39,2.62,4.87,4.43,8.15,9.28,12.1,8,6.5,17.77,13,26.33,19.66,2.8,2.15,6,4.41,7.84,7.88C171.8,183.5,168.94,186.13,167.76,186.4Z"/></g></g></svg>