<svg xmlns="http://www.w3.org/2000/svg" viewBox="0 0 111.06 307.02"><defs><style>.cls-1{fill:#b29430;}</style></defs><g id="Layer_2" data-name="Layer 2"><g id="Layer_1-2" data-name="Layer 1"><path d="M88.52,3.47a54,54,0,0,0-6-2.1c-.88-.24-1.85-.36-2.65-.56S78.48.37,77.71.23A9.61,9.61,0,0,0,75.39,0a30.53,30.53,0,0,0-5.9.86,21.56,21.56,0,0,0-2.95.81,27.71,27.71,0,0,0-5.83,2.86,38.9,38.9,0,0,0-5.38,5.1c-.44.45-.77,1.07-1.13,1.5s-.66.72-1,1.06c-1.05,1.08-2.1,2.08-3.07,3.2-1.55,1.79-3,3.64-4.48,5.49A12.87,12.87,0,0,0,44,23.15c-.43.84-.65,1.87-1,2.71s-.79,1.56-1.13,2.38a2.24,2.24,0,0,0-.12.65,5,5,0,0,1-.47,1.95,7,7,0,0,1-1.38,1.58,9.44,9.44,0,0,0-1.3,1.21,16.3,16.3,0,0,0-1.13,2.57,42.7,42.7,0,0,1-3.29,5.21,8.33,8.33,0,0,0-.63,2.19c-.23.71-.58,1.14-.85,1.85A12.77,12.77,0,0,0,32,47.77a15.9,15.9,0,0,0-.51,3.82,51.27,51.27,0,0,0,2.09,8.91,1.62,1.62,0,0,0,.75,1.13c.42.19.58-.24,1-.23a2.85,2.85,0,0,1,1.73.83c.08,1,.2,2.14.27,3.16A70.75,70.75,0,0,0,38,72.86a37,37,0,0,0,1.62,6.08,20.72,20.72,0,0,0,1.66,3,28.75,28.75,0,0,0,1.87,2.74A1.87,1.87,0,0,1,43.5,86c0,.45-.19.84-.22,1.28a24.69,24.69,0,0,0,.11,2.85c.1,2.31-.25,4.63,0,6.92a34.63,34.63,0,0,0,1.34,6c.17.55.59,1,.74,1.55a12.41,12.41,0,0,1,.47,3,9.8,9.8,0,0,1-.18,2.77,10.37,10.37,0,0,1-1.07,2.51,37,37,0,0,1-2.45,3.82c-.47.67-.92,1.35-1.42,2-.66.86-1.5,1.65-2.16,2.47a23.44,23.44,0,0,0-1.74,2.51,8.75,8.75,0,0,0-1.24,2.73c-.48,2.31-.8,4.62-1.49,6.87-.6,2-1.31,3.85-2,5.84s-1.47,3.83-2.08,5.9a60.89,60.89,0,0,0-2.36,11.37c-.23,2.4-.25,5-.41,7.41-.1,1.47-.26,3-.24,4.46a28.09,28.09,0,0,1,0,3.67l4-1.52a3.79,3.79,0,0,1,1.33-.24,5.18,5.18,0,0,1,1.05.29,1.58,1.58,0,0,0,.92,0c.3-.11.28-.38.61-.39a.79.79,0,0,1,.75.54,12.62,12.62,0,0,1,.67,2.84c.16,1.47.39,3,.47,4.42.11,2.2,0,4.3-.08,6.5-.09,4.5,0,9-.21,13.54A104.26,104.26,0,0,1,35,212.09a22.22,22.22,0,0,1-2.06,5.12,8.88,8.88,0,0,1-.88,1.67c-1.78,2.42-3.87,4.62-5.51,7.14a39.88,39.88,0,0,0-4.91,9.28c-2.18,6.76-3.09,13.74-4.32,20.7-.81,4.59-1.47,9.24-2.3,13.81-.66,3.65-1.77,7.11-2.68,10.68a10.47,10.47,0,0,1-1.1,2.93,18.39,18.39,0,0,1-2.08,2.5,5.13,5.13,0,0,1-.72.68c-.5.41-1.15.75-1.6,1.17a5.62,5.62,0,0,0-1.13,1.32,19,19,0,0,0-2.26,6.79,1,1,0,0,0-1-.2,1.33,1.33,0,0,0-.69.8,4.44,4.44,0,0,0-.24,1.08c-.21,1-.52,2-.73,3.06a41.15,41.15,0,0,0-.7,5.61c0,.2,0,.41,0,.56A1.52,1.52,0,0,1,0,307c2.47,0,4.93,0,7.4,0a13.83,13.83,0,0,1,1.69-2,4,4,0,0,1,2.16-1,4.39,4.39,0,0,1,2.83.78,12.15,12.15,0,0,1,2.14,2.16l11.85,0a24.77,24.77,0,0,1-.91-4.27,47.3,47.3,0,0,1-.24-5c0-.62.1-1.23.15-1.85.22-2.75.44-5.47.55-8.24.07-1.92,0-3.93.26-5.85a29.46,29.46,0,0,1,.6-3,78.16,78.16,0,0,1,2.28-8c.23-.69.51-1.37.78-2,2-5,4.46-9.91,6.92-14.74.57-1.1,1.11-2.24,1.69-3.27s1.2-1.93,1.76-2.93c.81-1.44,1.54-2.86,2.28-4.33.57-1.14,1.12-2.27,1.68-3.42.19-.38.35-.81.51-1.21.21,4.4,1.22,8.64,2,13a64.48,64.48,0,0,1,.78,9.82A55.81,55.81,0,0,1,48.38,273c-.4,2.08-1.71,3.66-2.74,5.46a25.82,25.82,0,0,0-2.32,4.14,13.39,13.39,0,0,0-.57,4.63c-.15-.25-.41-.36-.64-.13a1,1,0,0,0-.22.82c0,.67.16,1.35.21,2,.32,3.9.48,7.81.62,11.71a1.48,1.48,0,0,0,.21.79.86.86,0,0,0,.58.41,11.29,11.29,0,0,0,6.4-.59c0-3.14,0-6.27.06-9.4a5.76,5.76,0,0,1,2.94.7c4,2.4,8,4.93,12,7.34a15.82,15.82,0,0,0,3,1.53,6.75,6.75,0,0,0,3.25.23,5.75,5.75,0,0,0,1.62-.68c.87-.44,1.72-.91,2.58-1.39a9.18,9.18,0,0,0,1.58-1,11.9,11.9,0,0,0,1.4-1.52c.41-.52.88-1.11,1.24-1.61a5.05,5.05,0,0,0,.85-1.41,1.55,1.55,0,0,0-.16-1.46c-.33-.48-.81-.43-1.31-.32a6,6,0,0,0,.49-2.45,1.61,1.61,0,0,0-.66-1.3,3.44,3.44,0,0,0-2.3-.31c-1.38.09-2.68.3-4-.35a8.64,8.64,0,0,1-2.08-2,25.54,25.54,0,0,1-5.06-6.42,11.37,11.37,0,0,1-.88-5.17,49.28,49.28,0,0,1,1-9.89c.35-1.73.94-3.63,1.3-5.35.9-4.27,2.12-8.38,3-12.62.45-2.11.59-4.24,1-6.36a24.8,24.8,0,0,0,.54-2.88c.18-2.09.28-4.11.4-6.24s.12-4.38.09-6.54A9.12,9.12,0,0,1,72,222.1c.75-2,2.06-3.68,2.6-5.76.25-1,.1-2.07.27-3.06a7.7,7.7,0,0,1,.51-2.29,14.05,14.05,0,0,1,2.71-3.05,15.18,15.18,0,0,0,2.83-4,201.1,201.1,0,0,0,7.85-20.53c.28-.85.5-1.54.72-2.39,1.81.33,3.61.74,5.39,1.17a48.61,48.61,0,0,1-.08-8.61,80.66,80.66,0,0,1,1.5-9.29c.4.22.83.37,1.23.57a1.17,1.17,0,0,0,.42,1.5,4.52,4.52,0,0,0,2,.81,5.07,5.07,0,0,0,2.74-.29c1.33-.59,2.4-1.43,3.76-1.91.3-.1.67,0,.93-.23a2.33,2.33,0,0,0,.79-1.42c.87-3.71,1.76-7.38,2.5-11.16a17.4,17.4,0,0,0,.34-2.92,16.94,16.94,0,0,0-.22-2.85,13.24,13.24,0,0,0-.41-2.73c-2.72-7.59-6.45-14.71-10.06-21.89a24.52,24.52,0,0,1-.87-2.39c-.3-.82-.56-1.7-.86-2.5-.78-2.09-1.67-4.15-2.49-6.19a7.16,7.16,0,0,1-.48-1.69,2.52,2.52,0,0,1,.06-1c1-4.69,2.38-9.19,3.69-13.79a14,14,0,0,0,.56-5.35,16.71,16.71,0,0,0-1.32-5.15A19.31,19.31,0,0,0,91,74.83c-2-3.48-3.54-6.13-3.39-10.3a3.51,3.51,0,0,0-.16-1.64c-.7-1.49-1.24-3.13-2.54-4.3-2.8-2.55-6.51-3.85-9.63-6a6.21,6.21,0,0,1,1.61-1c.45-.1.72-.18,1.13.19a14.58,14.58,0,0,1,1.86,2.71,3.17,3.17,0,0,0,2.3,1.69c.43,0,.73-.42,1-.76,1.4-1.56,2.83-3.31,4.24-4.87.44-.47.91-.78,1.31-1.23a13.55,13.55,0,0,0,1.66-2.13A32.71,32.71,0,0,0,94.38,39c.2-.72,0-1.51.15-2.28a15.43,15.43,0,0,0,.26-2.47c0-.3-.17-.59-.12-.91a3.3,3.3,0,0,1,.61-1.49c.32-.45.72-.85,1-1.29-.15-.17-.29-.34-.45-.51a23,23,0,0,0,1.8-5.51A3.83,3.83,0,0,1,98.44,23a6.36,6.36,0,0,0,1.19-1.75A5.1,5.1,0,0,0,100,19c-.23-1.47,0-2.88-.74-4.26C96.66,9.87,93,6.61,88.52,3.47Z"/><path class="cls-1" d="M98.17,159.42a24.69,24.69,0,0,0,1.81-5,17.9,17.9,0,0,1,1.64-5.38c.28-.5.83-.7.73-1.45a3.11,3.11,0,0,0-.49-1.26,24.33,24.33,0,0,0-5.26-6.92,42.7,42.7,0,0,0,.67,4.84c.29,1.81.55,3.74.67,5.44C98.19,153.07,98.19,156.12,98.17,159.42Z"/></g></g></svg>